<?xml version="1.0" encoding="UTF-8"?>
<svg id="Layer_1" data-name="Layer 1" xmlns="http://www.w3.org/2000/svg" viewBox="0 0 1080 1080">
  <path d="M642.88,587.42c-5.42-5.41-13.52-2.33-19.63.18-42.05,17.3-105.44,99.82-134.85,136.9-36.04,45.43-69.91,98.4-107.43,141.34-89.37,102.3-236.93,82.14-255.15-64.58-13.79-111.04,30.06-250.82,72.34-353.01,37.25-90.05,84.4-181.2,138.32-262.31,35.79-53.83,57.09-86.11,120.66-109.13,47.68-17.26,139.04-33.87,188.25-23.91,20.04,4.05,27.29,10.83,14.22,29.57-15.65,22.43-38.7,45.8-56.33,67.55-114.72,141.49-237.8,304.73-284.68,483.61-10.23,39.05-19.13,84.35-16.1,124.84.82,11.05,5.09,26,19.08,22.99,25.28-5.43,69.62-56.33,87.37-76.47,47.44-53.81,91.19-111.12,139.84-163.88,54.58-59.19,126.89-117.56,212.67-80.77,103.02,44.19,52.15,153.1,22.11,227.63-27.09,67.2-59.47,132.82-74.42,204.3l2.06,1.13c59.72-15.34,112.21-48.24,168.1-72.71,16.1-7.05,46.79-21.96,63.59-16.28,23.9,8.08,11.43,34.62,2.83,49.73-34.48,60.58-152.49,155.48-220.57,171.07-45.09,10.32-128.88,5.33-165.89-25-38.4-31.46-20.23-88.48-6-127.91,22.7-62.91,50.55-123.77,71.22-187.55,7.27-22.43,16.76-50.49,20.4-73.51,1.07-6.77,3.42-18.4-2.02-23.83Z"/>
</svg>