<svg width="43" height="46" viewBox="0 0 43 46" fill="none" xmlns="http://www.w3.org/2000/svg">
<path fill-rule="evenodd" clip-rule="evenodd" d="M16.5241 16.5225L20.3657 1.64542C20.4911 1.13875 20.66 0.72378 20.8578 0.436898C21.0555 0.150023 21.2761 0 21.5 0C21.7239 0 21.9445 0.150023 22.1422 0.436898C22.34 0.72378 22.5089 1.13875 22.6343 1.64542L26.4768 16.524L41.3546 20.3657C41.8613 20.4911 42.2762 20.66 42.5631 20.8578C42.85 21.0555 43 21.2761 43 21.5C43 21.7239 42.85 21.9445 42.5631 22.1422C42.2762 22.34 41.8613 22.5089 41.3546 22.6343L26.4767 26.4767L22.6343 41.3546C22.5089 41.8612 22.34 42.2762 22.1422 42.5631C21.9445 42.85 21.7239 43 21.5 43C21.2761 43 21.0555 42.85 20.8578 42.5631C20.66 42.2762 20.4911 41.8612 20.3657 41.3546L16.5227 26.4765L1.64542 22.6343C1.13875 22.5089 0.723777 22.34 0.436898 22.1422C0.150017 21.9445 0 21.7239 0 21.5C0 21.2761 0.150017 21.0555 0.436898 20.8578C0.723777 20.66 1.13875 20.4911 1.64542 20.3657L16.5241 16.5225Z" fill="url(#paint0_linear_32_1653)"/>
<path fill-rule="evenodd" clip-rule="evenodd" d="M33.1485 36.1479L34.5779 30.6122C34.6246 30.4237 34.6874 30.2693 34.761 30.1626C34.8346 30.0558 34.9167 30 35 30C35.0833 30 35.1654 30.0558 35.239 30.1626C35.3126 30.2693 35.3754 30.4237 35.4221 30.6122L36.8518 36.1485L42.3878 37.5779C42.5763 37.6246 42.7307 37.6874 42.8374 37.761C42.9442 37.8346 43 37.9167 43 38C43 38.0833 42.9442 38.1654 42.8374 38.239C42.7307 38.3126 42.5763 38.3754 42.3878 38.4221L36.8518 39.8518L35.4221 45.3878C35.3754 45.5763 35.3126 45.7307 35.239 45.8374C35.1654 45.9442 35.0833 46 35 46C34.9167 46 34.8346 45.9442 34.761 45.8374C34.6874 45.7307 34.6246 45.5763 34.5779 45.3878L33.148 39.8517L27.6122 38.4221C27.4237 38.3754 27.2693 38.3126 27.1626 38.239C27.0558 38.1654 27 38.0833 27 38C27 37.9167 27.0558 37.8346 27.1626 37.761C27.2693 37.6874 27.4237 37.6246 27.6122 37.5779L33.1485 36.1479Z" fill="url(#paint1_linear_32_1653)"/>
<defs>
<linearGradient id="paint0_linear_32_1653" x1="33" y1="43" x2="10.4852" y2="7.30788" gradientUnits="userSpaceOnUse">
<stop stop-color="#2C0AFF"/>
<stop offset="1" stop-color="#FF6767"/>
</linearGradient>
<linearGradient id="paint1_linear_32_1653" x1="30.9015" y1="32.7192" x2="41.3448" y2="49.2315" gradientUnits="userSpaceOnUse">
<stop stop-color="#5D20DD"/>
<stop offset="1" stop-color="#B1245A"/>
</linearGradient>
</defs>
</svg>
