<svg width="60" height="44" viewBox="0 0 60 44" fill="none" xmlns="http://www.w3.org/2000/svg">
<path fill-rule="evenodd" clip-rule="evenodd" d="M6.64851 6.64792L8.07795 1.11225C8.12458 0.923723 8.18744 0.769314 8.26103 0.662567C8.33461 0.555822 8.41667 0.5 8.5 0.5C8.58333 0.5 8.66539 0.555822 8.73897 0.662567C8.81255 0.769314 8.87542 0.923723 8.92205 1.11225L10.3518 6.64845L15.8878 8.07795C16.0763 8.12458 16.2307 8.18744 16.3374 8.26103C16.4442 8.33461 16.5 8.41667 16.5 8.5C16.5 8.58333 16.4442 8.66539 16.3374 8.73897C16.2307 8.81256 16.0763 8.87542 15.8878 8.92205L10.3518 10.3518L8.92205 15.8878C8.87542 16.0763 8.81255 16.2307 8.73897 16.3374C8.66539 16.4442 8.58333 16.5 8.5 16.5C8.41667 16.5 8.33461 16.4442 8.26103 16.3374C8.18744 16.2307 8.12458 16.0763 8.07795 15.8878L6.64798 10.3517L1.11225 8.92205C0.923723 8.87542 0.769312 8.81256 0.662567 8.73897C0.55582 8.66539 0.5 8.58333 0.5 8.5C0.5 8.41667 0.55582 8.33461 0.662567 8.26103C0.769312 8.18744 0.923721 8.12458 1.11225 8.07795L6.64851 6.64792Z" fill="white"/>
<path fill-rule="evenodd" clip-rule="evenodd" d="M33.0241 17.0225L36.8657 2.14542C36.9911 1.63875 37.16 1.22378 37.3578 0.936898C37.5555 0.650023 37.7761 0.5 38 0.5C38.2239 0.5 38.4445 0.650023 38.6422 0.936898C38.84 1.22378 39.0089 1.63875 39.1343 2.14542L42.9768 17.024L57.8546 20.8657C58.3613 20.9911 58.7762 21.16 59.0631 21.3578C59.35 21.5555 59.5 21.7761 59.5 22C59.5 22.2239 59.35 22.4445 59.0631 22.6422C58.7762 22.84 58.3613 23.0089 57.8546 23.1343L42.9767 26.9767L39.1343 41.8546C39.0089 42.3612 38.84 42.7762 38.6422 43.0631C38.4445 43.35 38.2239 43.5 38 43.5C37.7761 43.5 37.5555 43.35 37.3578 43.0631C37.16 42.7762 36.9911 42.3612 36.8657 41.8546L33.0227 26.9765L18.1454 23.1343C17.6388 23.0089 17.2238 22.84 16.9369 22.6422C16.65 22.4445 16.5 22.2239 16.5 22C16.5 21.7761 16.65 21.5555 16.9369 21.3578C17.2238 21.16 17.6388 20.9911 18.1454 20.8657L33.0241 17.0225Z" fill="white"/>
</svg>
