<svg width="97" height="113" viewBox="0 0 97 113" fill="none" xmlns="http://www.w3.org/2000/svg">
<path fill-rule="evenodd" clip-rule="evenodd" d="M90.164 63.5791C87.3515 59.9627 81.1432 80.2975 80.6451 83.12C84.5125 83.6713 96.4621 70.6475 90.164 63.5791ZM14.7553 57.8846C8.57318 57.8846 7.89777 65.0855 9.73585 69.4043C10.6636 71.5846 13.1774 75.7704 15.557 76.6766C14.7587 69.3638 15.4153 57.9441 14.7553 57.8846ZM54.2042 31.9682C45.3868 44.5826 45.6039 44.5207 39.5862 51.8374C43.323 55.1142 39.9832 56.9348 38.7354 55.9163C38.4575 55.7555 37.3742 54.8595 36.8291 54.3728C34.9116 56.0717 35.0443 56.1224 32.4126 57.5665C33.1961 58.5084 34.2601 63.8917 32.8988 68.9714C31.9419 72.5414 28.8136 72.1247 28.2261 68.8111C27.9016 64.0274 27.8717 62.0226 28.8006 58.0384C24.7245 58.0384 22.6868 57.5672 18.8078 56.7407C17.7433 79.4927 19.7476 102.672 41.34 109.171C45.8433 109.95 50.0147 109.603 53.5153 108.203C70.4369 101.436 78.4279 84.8271 80.9321 67.9473C73.5782 63.1248 69.0891 60.2699 63.9563 52.73C61.4679 52.73 60.7039 55.0791 59.622 55.4431C56.8268 56.3851 56.83 51.9902 61.6688 49.8988C59.8757 47.0564 59.4387 46.4762 58.0402 43.3092C56.0145 37.6731 55.9882 37.3644 54.2042 31.9682ZM77.478 57.0132C75.6795 58.3477 74.6365 56.3326 73.3982 55.3932C71.2742 53.8764 70.5703 53.3726 68.0499 52.612C69.4654 55.512 76.7035 62.0639 81.5342 64.5265C88.2886 62.7577 95.2458 38.4057 93.1591 31.3128C89.8282 23.1325 78.9519 10.5874 70.3561 7.41331C65.8441 5.74745 61.9998 9.89097 59.1405 10.7346C57.8377 12.0786 42.06 0.267241 33.8178 4.79764C26.7869 9.37194 0.778737 35.7882 4.27322 43.4836C6.36363 46.9917 14.1367 51.5195 18.032 52.9002C21.1806 54.0483 28.9946 55.73 31.7055 54.2785C32.7372 53.7262 33.2285 53.2465 34.098 52.494C28.7044 49.2837 27.6212 50.2237 22.8111 52.6765C20.94 54.2702 19.0362 51.0759 21.5291 49.2622C26.1873 45.7477 31.9175 47.083 36.6264 49.8988C44.3822 40.2408 44.5874 40.2438 51.6522 28.8788C52.9569 26.5346 53.4949 24.3655 54.9267 24.0646C58.0464 24.0646 56.6851 27.0516 57.5497 29.9756C58.6108 34.9769 61.6875 45.438 65.5418 49.053C70.3704 48.2209 80.2121 54.7002 77.478 57.0132ZM58.5385 6.95979C60.0082 6.95979 66.7963 2.3047 70.562 3.79062C79.0871 7.1555 95.9747 22.9804 96.819 31.3838C97.8001 41.146 94.6682 50.7023 90.4435 59.4539C102.783 62.2717 90.7057 88.8642 79.3263 87.2019C74.7029 97.0669 65.0435 107.7 54.3963 111.428C32.4726 118.965 18.253 97.8697 15.8656 80.6139C7.0573 76.9255 0.36548 61.4332 10.982 55.2072C10.8904 54.1301 1.09281 47.4519 0.133539 43.6499C-2.16857 34.5247 25.889 0 38.4323 0C44.6805 0 56.6531 6.95979 58.5385 6.95979Z" fill="#533420"/>
<path fill-rule="evenodd" clip-rule="evenodd" d="M66.6208 70.039C65.888 71.9274 62.8438 72.2385 62.3114 69.0723C61.9106 66.518 61.8961 62.9222 62.4136 58.8448C62.9554 54.4375 66.4317 55.0131 67.3508 58.1756C68.0497 60.5807 67.7057 67.4906 66.6208 70.039Z" fill="#533420"/>
<path fill-rule="evenodd" clip-rule="evenodd" d="M55.8896 89.6527C55.8896 93.3561 45.1356 94.6072 42.5257 94.6072C40.1805 94.6072 38.8096 93.6747 39.0343 92.484C39.3485 90.8857 41.0319 91.3043 44.2112 91.3043C46.2248 91.3043 50.8615 90.0679 52.4731 88.8946C53.7815 87.9448 55.8896 87.6504 55.8896 89.6527Z" fill="#533420"/>
<path fill-rule="evenodd" clip-rule="evenodd" d="M43.0401 72.4629C41.9418 73.7713 41.3899 76.5162 42.1277 77.4203C43.4826 79.082 44.6352 78.4597 45.4604 79.4827C46.3428 80.5435 44.2081 82.6136 41.3011 81.0614C39.47 80.0838 38.5416 78.1785 38.3113 76.2051C38.1623 74.9269 39.0012 72.6095 39.5204 71.7273C41.7409 67.953 44.9944 69.4719 43.0401 72.4629Z" fill="#533420"/>
</svg>
