<svg width="97" height="113" viewBox="0 0 97 113" fill="none" xmlns="http://www.w3.org/2000/svg">
<path fill-rule="evenodd" clip-rule="evenodd" d="M6.83602 63.5791C9.64846 59.9627 15.8568 80.2975 16.3549 83.12C12.4875 83.6713 0.537897 70.6475 6.83602 63.5791ZM82.2447 57.8846C88.4268 57.8846 89.1022 65.0855 87.2642 69.4043C86.3364 71.5846 83.8226 75.7704 81.443 76.6766C82.2413 69.3638 81.5847 57.9441 82.2447 57.8846ZM42.7958 31.9682C51.6132 44.5826 51.3961 44.5207 57.4138 51.8374C53.677 55.1142 57.0168 56.9348 58.2646 55.9163C58.5425 55.7555 59.6258 54.8595 60.1709 54.3728C62.0884 56.0717 61.9557 56.1224 64.5874 57.5665C63.8039 58.5084 62.7399 63.8917 64.1012 68.9714C65.0581 72.5414 68.1864 72.1247 68.7739 68.8111C69.0984 64.0274 69.1283 62.0226 68.1994 58.0384C72.2755 58.0384 74.3132 57.5672 78.1922 56.7407C79.2567 79.4927 77.2524 102.672 55.66 109.171C51.1567 109.95 46.9853 109.603 43.4847 108.203C26.5631 101.436 18.5721 84.8271 16.0679 67.9473C23.4218 63.1248 27.9109 60.2699 33.0437 52.73C35.5321 52.73 36.2961 55.0791 37.378 55.4431C40.1732 56.3851 40.17 51.9902 35.3312 49.8988C37.1243 47.0564 37.5613 46.4762 38.9598 43.3092C40.9855 37.6731 41.0118 37.3644 42.7958 31.9682ZM19.522 57.0132C21.3205 58.3477 22.3635 56.3326 23.6018 55.3932C25.7258 53.8764 26.4297 53.3726 28.9501 52.612C27.5346 55.512 20.2965 62.0639 15.4658 64.5265C8.71143 62.7577 1.75416 38.4057 3.84092 31.3128C7.17182 23.1325 18.0481 10.5874 26.6439 7.41331C31.1559 5.74745 35.0002 9.89097 37.8595 10.7346C39.1623 12.0786 54.94 0.267241 63.1822 4.79764C70.2131 9.37194 96.2213 35.7882 92.7268 43.4836C90.6364 46.9917 82.8633 51.5195 78.968 52.9002C75.8194 54.0483 68.0054 55.73 65.2945 54.2785C64.2628 53.7262 63.7715 53.2465 62.902 52.494C68.2956 49.2837 69.3788 50.2237 74.1889 52.6765C76.06 54.2702 77.9638 51.0759 75.4709 49.2622C70.8127 45.7477 65.0825 47.083 60.3736 49.8988C52.6178 40.2408 52.4126 40.2438 45.3478 28.8788C44.0431 26.5346 43.5051 24.3655 42.0733 24.0646C38.9536 24.0646 40.3149 27.0516 39.4503 29.9756C38.3892 34.9769 35.3125 45.438 31.4582 49.053C26.6296 48.2209 16.7879 54.7002 19.522 57.0132ZM38.4615 6.95979C36.9918 6.95979 30.2037 2.3047 26.438 3.79062C17.9129 7.1555 1.02533 22.9804 0.181034 31.3838C-0.800134 41.146 2.33183 50.7023 6.55647 59.4539C-5.78346 62.2717 6.29434 88.8642 17.6737 87.2019C22.2971 97.0669 31.9565 107.7 42.6037 111.428C64.5274 118.965 78.747 97.8697 81.1344 80.6139C89.9427 76.9255 96.6345 61.4332 86.018 55.2072C86.1096 54.1301 95.9072 47.4519 96.8665 43.6499C99.1686 34.5247 71.111 0 58.5677 0C52.3195 0 40.3469 6.95979 38.4615 6.95979Z" fill="#533420"/>
<path fill-rule="evenodd" clip-rule="evenodd" d="M30.3792 70.039C31.112 71.9274 34.1562 72.2385 34.6886 69.0723C35.0894 66.518 35.1039 62.9222 34.5864 58.8448C34.0446 54.4375 30.5683 55.0131 29.6492 58.1756C28.9503 60.5807 29.2943 67.4906 30.3792 70.039Z" fill="#533420"/>
<path fill-rule="evenodd" clip-rule="evenodd" d="M41.1104 89.6527C41.1104 93.3561 51.8644 94.6072 54.4743 94.6072C56.8195 94.6072 58.1904 93.6747 57.9657 92.484C57.6515 90.8857 55.9681 91.3043 52.7888 91.3043C50.7752 91.3043 46.1385 90.0679 44.5269 88.8946C43.2185 87.9448 41.1104 87.6504 41.1104 89.6527Z" fill="#533420"/>
<path fill-rule="evenodd" clip-rule="evenodd" d="M53.9599 72.4629C55.0582 73.7713 55.6101 76.5162 54.8723 77.4203C53.5174 79.082 52.3648 78.4597 51.5396 79.4827C50.6572 80.5435 52.7919 82.6136 55.6989 81.0614C57.53 80.0838 58.4584 78.1785 58.6887 76.2051C58.8377 74.9269 57.9988 72.6095 57.4796 71.7273C55.2591 67.953 52.0056 69.4719 53.9599 72.4629Z" fill="#533420"/>
</svg>
