<svg width="32" height="38" viewBox="0 0 32 38" fill="none" xmlns="http://www.w3.org/2000/svg">
<path d="M1.51179 20.7854L3.90549 21.8056L1.51179 16.5774L0.37793 10.7116L1.51179 8.67133L7.30706 2.42301L9.32281 1.91294L12.4724 3.06059L19.2756 0.510254L22.2992 1.91294L27.7165 7.90623L29.7323 10.7116C30.0682 11.2217 30.8409 12.4203 31.2441 13.1344C31.6472 13.8485 31.4121 14.6221 31.2441 14.9197L27.7165 18.6176L29.7323 21.8056L29.2283 23.5908L26.7086 27.0337L25.9527 28.3089L23.0551 34.8123L17.7638 37.7452L12.4724 36.0874L8.18895 32.1344L6.29919 29.329L3.90549 28.3089L0.881867 23.5908L1.51179 20.7854Z" fill="#F5E8D3"/>
<path fill-rule="evenodd" clip-rule="evenodd" d="M2.25518 21.3806C3.183 20.1645 5.23112 27.0027 5.39543 27.9518C4.11957 28.1373 0.17745 23.7576 2.25518 21.3806ZM28.7882 23.3395C29.3946 21.8872 29.1717 19.4656 27.1323 19.4656C27.0274 19.4753 27.0233 20.3711 27.0178 21.572C27.0119 22.8644 27.0043 24.5103 26.8678 25.7851C27.6528 25.4803 28.4821 24.0727 28.7882 23.3395ZM15.2982 12.4751L15.298 12.4749L15.2969 12.4732C14.9655 11.9881 14.5793 11.4228 14.1182 10.7504C13.9545 11.2551 13.8357 11.6274 13.7351 11.9428C13.4738 12.7613 13.3351 13.196 12.8527 14.5641C12.4386 15.5201 12.2801 15.7752 11.8242 16.5086C11.7721 16.5923 11.7163 16.6822 11.6557 16.7801C13.252 17.4834 13.253 18.9613 12.3309 18.6446C12.2043 18.6012 12.0909 18.4738 11.9607 18.3274C11.7236 18.0612 11.4308 17.7322 10.901 17.7322C9.24263 20.2155 7.78793 21.1875 5.44958 22.7501L5.30074 22.8495C6.12686 28.5259 8.76308 34.1113 14.3455 36.3868C15.5003 36.8576 16.8764 36.9742 18.3621 36.7124C25.4853 34.5268 26.1465 26.7321 25.7954 19.081L25.6443 19.1138C24.4607 19.3713 23.7896 19.5173 22.4988 19.5173C22.8052 20.8572 22.7954 21.5313 22.6883 23.14C22.4945 24.2543 21.4625 24.3944 21.1468 23.1939C20.6977 21.4857 21.0487 19.6754 21.3072 19.3587C20.5734 18.9482 20.4911 18.8725 20.1013 18.514C20.0299 18.4483 19.9481 18.3731 19.8502 18.2847C19.6704 18.4483 19.313 18.7496 19.2213 18.8037C18.8097 19.1462 17.7079 18.534 18.9406 17.4321C17.2705 15.3621 17.0561 15.0483 15.2982 12.4751ZM7.50309 18.8928C7.20102 19.2012 6.89329 19.5153 6.44026 19.1726C5.53828 18.3948 8.78503 16.2159 10.3779 16.4957C11.6495 15.28 12.6645 11.7622 13.0145 10.0803C13.1073 9.76046 13.1224 9.4384 13.1359 9.14938C13.164 8.54983 13.1854 8.09253 13.8799 8.09253C14.2213 8.16567 14.4087 8.56711 14.6489 9.08178C14.741 9.27907 14.8408 9.49301 14.9601 9.71146C17.0797 13.1873 17.3276 13.5011 19.2797 15.9725L19.2801 15.9729L19.2834 15.9771C19.4767 16.2219 19.6868 16.4879 19.9171 16.7801C21.4705 15.8332 23.3609 15.3842 24.8976 16.5661C25.72 17.176 25.092 18.2502 24.4747 17.7142C24.3795 17.6647 24.2887 17.6171 24.2018 17.5715C22.8399 16.8565 22.4238 16.6381 20.7512 17.6528C20.7874 17.6848 20.8216 17.7153 20.8545 17.7445C21.0818 17.947 21.2431 18.0907 21.5405 18.253C22.4348 18.7411 25.0126 18.1755 26.0513 17.7895C27.3364 17.3251 29.9007 15.8025 30.5903 14.6228C31.7431 12.035 23.1631 3.15162 20.8436 1.61337C19.0078 0.584769 16.0388 2.0612 14.1714 2.98986C13.2729 3.43668 12.6293 3.75669 12.4897 3.60988C12.2019 3.5233 11.8838 3.3334 11.5384 3.12721C10.752 2.6577 9.82402 2.10371 8.78974 2.49297C5.95402 3.56035 2.36596 7.77908 1.26711 10.53C0.578691 12.9152 2.87387 21.1044 5.10212 21.6992C6.69575 20.8711 9.08359 18.6677 9.55056 17.6925C8.7199 17.9481 8.48731 18.1174 7.78824 18.6263L7.78617 18.6278C7.68959 18.7025 7.59661 18.7974 7.50309 18.8928ZM11.794 1.98802C12.2089 2.18517 12.5356 2.34046 12.6883 2.34046C12.9089 2.34046 13.5477 2.04625 14.3724 1.66645C15.8737 0.975041 17.9909 0 19.3213 0C23.4593 0 32.7154 11.6101 31.9559 14.6787C31.7555 15.4885 30.3855 16.6862 29.4002 17.5477L29.4001 17.5477C28.8297 18.0464 28.3882 18.4324 28.3771 18.5653C31.8794 20.659 29.6718 25.8687 26.766 27.1091C25.9784 32.9119 21.2874 40.0059 14.0548 37.4715C10.5424 36.2176 7.35576 32.642 5.83049 29.3245C2.07648 29.8835 -1.90795 20.9409 2.16296 19.9934C0.769265 17.0503 -0.263962 13.8367 0.0597227 10.5538C0.338253 7.72791 5.90941 2.40628 8.72181 1.27472C9.57284 0.932415 10.8918 1.55922 11.794 1.98802ZM11.4437 23.2279C11.2681 24.2926 10.2638 24.188 10.0221 23.5529C9.66416 22.696 9.55065 20.3723 9.78123 19.5635C10.0844 18.5 11.2312 18.3064 11.41 19.7885C11.5807 21.1597 11.5759 22.3689 11.4437 23.2279ZM13.5621 30.1487C13.5621 31.3941 17.1098 31.8149 17.9708 31.8149C18.7445 31.8149 19.1968 31.5013 19.1227 31.1008C19.0385 30.6646 18.6568 30.6752 17.9551 30.6946C17.7923 30.6991 17.6123 30.7041 17.4148 30.7041C16.7505 30.7041 15.2209 30.2884 14.6892 29.8938C14.2576 29.5744 13.5621 29.4754 13.5621 30.1487ZM18.1022 26.0351C18.3456 25.7311 18.1635 24.808 17.8012 24.368C17.1565 23.3622 18.2298 22.8514 18.9623 24.1206C19.1337 24.4173 19.4104 25.1966 19.3612 25.6264C19.2853 26.29 18.979 26.9308 18.3749 27.2595C17.4159 27.7815 16.7117 27.0854 17.0028 26.7286C17.1226 26.5772 17.2633 26.533 17.4214 26.4833C17.6226 26.42 17.852 26.348 18.1022 26.0351Z" fill="#331C0C"/>
</svg>
